<?xml version="1.0" standalone="no"?>
<!DOCTYPE svg PUBLIC "-//W3C//DTD SVG 20010904//EN" "http://www.w3.org/TR/2001/REC-SVG-20010904/DTD/svg10.dtd">
<svg xmlns="http://www.w3.org/2000/svg" version="1.0" width="300.000000pt" height="300.000000pt" viewBox="0 0 300.000000 300.000000" preserveAspectRatio="xMidYMid meet" style="background-color:transparent;">
  <metadata>
Created by potrace 1.10, written by Peter Selinger 2001-2011
</metadata>
  <g transform="translate(0.000000,300.000000) scale(0.100000,-0.100000)" fill="#000000" stroke="none">
    <path d="M1465 2288 c-45 -16 -94 -67 -106 -111 -22 -83 22 -173 97 -197 24 -8 34 -17 32 -28 -2 -11 -68 -50 -168 -101 l-165 -85 50 -8 c48 -7 55 -5 181 59 l130 67 177 -92 c147 -77 183 -92 222 -92 58 0 99 -21 117 -60 11 -25 37 -43 141 -96 70 -36 131 -72 134 -80 3 -9 -3 -24 -13 -35 -19 -18 -44 -19 -777 -19 -525 0 -764 3 -778 11 -13 6 -19 18 -17 32 2 17 33 38 133 90 121 63 131 71 151 112 l21 45 -169 -88 c-175 -89 -198 -109 -198 -164 0 -33 27 -68 65 -84 49 -20 1530 -21 1579 0 35 15 66 59 66 95 0 46 -50 77 -439 276 l-390 200 -1 42 c0 42 0 43 -46 54 -75 19 -105 90 -65 155 48 79 162 62 180 -26 6 -29 11 -35 31 -35 20 0 26 6 28 30 4 43 -34 95 -88 123 -48 24 -69 26 -115 10z"/>
    <path d="M1115 1742 c-62 -22 -105 -88 -105 -163 0 -86 68 -149 160 -149 89 0 150 64 150 158 0 39 4 52 15 52 24 0 34 -33 28 -91 -5 -48 -2 -59 19 -83 34 -40 110 -48 151 -16 43 34 70 96 71 165 l1 60 -65 6 c-36 3 -67 4 -69 3 -2 -2 8 -17 22 -33 35 -42 54 -129 38 -170 -15 -35 -38 -46 -58 -29 -11 9 -13 29 -7 99 6 85 6 88 -20 114 -22 22 -32 25 -59 19 -17 -3 -41 -13 -53 -21 -21 -13 -23 -12 -39 15 -10 16 -30 37 -46 46 -31 18 -104 28 -134 18z m40 -53 c62 -55 114 -164 100 -209 -17 -54 -112 17 -159 120 -28 61 -32 90 -14 108 19 19 34 15 73 -19z m103 -22 c14 -13 22 -32 22 -51 0 -30 -1 -30 -35 21 -19 29 -35 55 -35 58 0 8 20 -4 48 -28z m170 -67 c5 -45 -7 -102 -19 -95 -15 10 -12 138 4 133 6 -3 13 -20 15 -38z m-324 -92 c10 -15 13 -28 7 -28 -16 0 -61 61 -61 83 0 22 1 22 19 -2 10 -14 26 -37 35 -53z"/>
    <path d="M1636 1728 c-21 -30 -20 -44 4 -68 38 -38 100 -16 100 35 0 53 -74 76 -104 33z"/>
    <path d="M1771 1653 c-2 -82 60 -99 94 -25 31 66 74 47 63 -29 -2 -19 -8 -23 -28 -21 -46 4 -124 -23 -136 -47 -16 -31 -3 -73 27 -88 32 -17 126 -17 132 0 4 10 7 10 18 0 20 -20 69 -15 121 10 37 18 45 26 36 35 -9 9 -16 8 -31 -6 -18 -16 -20 -16 -33 3 -10 14 -13 32 -8 62 8 51 -8 96 -42 118 -29 19 -111 19 -144 0 -35 -20 -45 -18 -58 8 -10 20 -11 18 -11 -20z m219 -120 c0 -66 -2 -74 -15 -63 -24 20 -19 160 6 144 5 -3 9 -39 9 -81z m-70 -27 c0 -30 -4 -57 -9 -60 -25 -16 -61 30 -61 78 0 30 7 36 42 36 27 0 28 -1 28 -54z"/>
    <path d="M1630 1536 l0 -106 50 0 51 0 -3 92 -3 92 -30 7 c-16 4 -38 10 -47 14 -17 7 -18 -2 -18 -99z m66 20 c8 -34 1 -79 -13 -84 -9 -3 -13 12 -13 52 0 57 15 75 26 32z"/>
    <path d="M675 1275 c0 -42 3 -55 15 -55 12 0 14 11 12 55 -5 74 -27 74 -27 0z"/>
    <path d="M905 1275 c0 -43 3 -55 15 -55 10 0 16 9 15 27 0 14 6 28 13 30 8 3 12 -6 12 -26 0 -20 5 -31 14 -31 10 0 12 8 7 33 -6 25 -12 32 -29 31 -17 0 -22 5 -22 23 0 13 -6 23 -12 23 -9 0 -13 -18 -13 -55z"/>
    <path d="M2537 1310 c4 -15 0 -20 -15 -20 -12 0 -26 -8 -31 -18 -15 -27 4 -50 41 -50 l33 0 -3 54 c-3 36 -8 54 -17 54 -8 0 -11 -7 -8 -20z m0 -45 c7 -20 -2 -29 -21 -22 -9 4 -13 13 -10 22 8 19 23 19 31 0z"/>
    <path d="M570 1299 c-24 -45 21 -98 62 -73 9 6 4 10 -17 14 -34 6 -46 39 -20 60 12 10 18 10 30 0 12 -10 15 -10 15 4 0 25 -56 21 -70 -5z"/>
    <path d="M842 1268 c2 -34 7 -44 23 -46 16 -3 18 -1 8 9 -16 16 -17 49 -2 49 6 0 4 7 -5 15 -23 23 -27 18 -24 -27z"/>
    <path d="M1428 1299 c-9 -26 5 -79 20 -79 12 0 13 3 4 12 -14 14 -16 48 -2 48 5 0 7 7 4 15 -7 18 -21 20 -26 4z"/>
    <path d="M744 1276 c-10 -26 1 -51 22 -54 27 -4 47 21 39 48 -7 24 -53 28 -61 6z m41 -19 c0 -26 -20 -25 -23 2 -3 16 1 22 10 19 7 -3 13 -12 13 -21z"/>
    <path d="M1025 1270 c4 -12 1 -27 -5 -35 -10 -13 -8 -15 14 -15 22 0 25 3 18 16 -5 9 -7 25 -5 35 4 13 0 19 -12 19 -12 0 -15 -5 -10 -20z"/>
    <path d="M1085 1255 c0 -25 4 -35 16 -35 12 0 14 8 11 31 -3 24 -1 30 9 27 8 -2 15 -17 17 -31 2 -15 9 -27 16 -27 10 0 12 9 7 33 -6 28 -11 32 -41 35 -34 3 -35 2 -35 -33z"/>
    <path d="M1198 1283 c-2 -5 -4 -26 -3 -48 0 -37 2 -40 29 -40 35 0 47 24 17 32 -18 4 -19 7 -8 17 8 6 17 19 20 29 5 14 1 17 -23 17 -16 0 -30 -3 -32 -7z"/>
    <path d="M1342 1255 c0 -28 4 -35 19 -35 28 0 35 28 13 46 -17 14 -17 15 -1 10 9 -3 17 -1 17 4 0 6 -11 10 -24 10 -21 0 -24 -5 -24 -35z"/>
    <path d="M1497 1284 c-15 -15 -7 -53 13 -59 27 -8 52 12 48 39 -3 21 -46 35 -61 20z m38 -27 c0 -26 -20 -25 -23 2 -3 16 1 22 10 19 7 -3 13 -12 13 -21z"/>
    <path d="M1595 1255 c0 -25 4 -35 16 -35 12 0 14 7 11 30 -3 25 -1 29 12 24 9 -3 16 -1 16 5 0 6 -12 11 -27 11 -25 0 -28 -3 -28 -35z"/>
    <path d="M1675 1270 c-4 -12 -1 -27 5 -35 14 -17 46 -20 55 -5 4 6 -5 10 -19 10 -14 0 -26 5 -26 10 0 6 12 10 26 10 34 0 27 24 -8 28 -19 2 -28 -2 -33 -18z"/>
    <path d="M1832 1254 c21 -36 21 -37 3 -50 -10 -8 -16 -17 -12 -20 11 -11 26 6 50 56 23 48 23 50 5 50 -11 0 -16 -4 -13 -10 3 -5 1 -18 -4 -27 -10 -17 -11 -16 -12 2 -1 11 -1 23 0 28 0 4 -8 7 -19 7 -19 0 -19 -1 2 -36z"/>
    <path d="M1925 1270 c-13 -41 43 -70 64 -33 13 25 -5 53 -34 53 -15 0 -26 -7 -30 -20z m48 -4 c3 -8 0 -19 -7 -26 -10 -8 -15 -6 -20 6 -7 17 0 34 14 34 4 0 10 -6 13 -14z"/>
    <path d="M2029 1258 c6 -29 11 -33 42 -35 34 -2 35 -1 31 33 -2 18 -10 34 -17 34 -8 0 -10 -9 -7 -25 3 -18 0 -25 -12 -25 -10 0 -16 9 -16 25 0 15 -6 25 -14 25 -10 0 -12 -8 -7 -32z"/>
    <path d="M2194 1255 c0 -26 4 -35 16 -35 13 0 16 7 12 31 -3 24 -1 30 9 27 8 -2 15 -17 17 -31 2 -15 9 -27 16 -27 10 0 11 7 2 35 -9 30 -15 35 -41 35 -27 0 -30 -3 -31 -35z"/>
    <path d="M2303 1274 c-3 -9 -2 -24 4 -33 12 -18 53 -28 53 -12 0 6 -9 11 -20 11 -11 0 -20 5 -20 10 0 6 11 10 25 10 18 0 23 4 19 15 -8 20 -53 19 -61 -1z"/>
    <path d="M2395 1270 c-4 -12 -1 -27 5 -35 14 -17 46 -20 55 -5 4 6 -5 10 -19 10 -14 0 -26 5 -26 10 0 6 12 10 26 10 34 0 27 24 -8 28 -19 2 -28 -2 -33 -18z"/>
  </g>
</svg>
